<svg version="1.1" id="Layer_1" xmlns="http://www.w3.org/2000/svg" xmlns:xlink="http://www.w3.org/1999/xlink" x="0px" y="0px"
	 width="100%" viewBox="0 0 320 160" enable-background="new 0 0 320 160" xml:space="preserve">
<path fill="#C8102E" opacity="1.000000" stroke="none" 
	d="
M177.000000,161.000000 
	C166.645767,161.000000 156.291550,161.000000 145.473541,160.531372 
	C145.009750,139.131256 145.009750,118.199768 145.009750,97.000000 
	C96.609451,97.000000 48.804726,97.000000 1.000000,97.000000 
	C1.000000,86.645775 1.000000,76.291542 1.468638,65.473282 
	C49.533108,65.009254 97.128937,65.009254 145.000000,65.009254 
	C145.000000,43.278461 145.000000,22.139231 145.000000,1.000000 
	C155.354233,1.000000 165.708450,1.000000 176.526428,1.468635 
	C176.990158,22.868763 176.990158,43.800259 176.990158,65.000000 
	C225.390488,65.000000 273.195251,65.000000 321.000000,65.000000 
	C321.000000,75.354225 321.000000,85.708458 320.531372,96.526703 
	C272.466858,96.990723 224.871033,96.990723 177.000000,96.990723 
	C177.000000,118.721527 177.000000,139.860764 177.000000,161.000000 
z"/>
<path fill="#FBFAFB" opacity="1.000000" stroke="none" 
	d="
M144.541931,1.000000 
	C145.000000,22.139231 145.000000,43.278461 145.000000,65.009254 
	C97.128937,65.009254 49.533108,65.009254 1.468638,65.004623 
	C1.000000,61.638714 1.000000,58.277424 1.459191,54.558910 
	C24.431772,54.201683 46.945164,54.201683 69.458557,54.201683 
	C69.547974,53.861340 69.637390,53.520992 69.726807,53.180649 
	C46.817875,41.787098 23.908937,30.393549 1.000000,19.000000 
	C1.000000,17.285641 1.000000,15.571283 1.335786,13.529420 
	C26.628477,25.697115 51.746807,37.884441 76.460976,50.842598 
	C86.032890,55.861351 95.578972,53.490917 105.259140,53.746216 
	C104.082420,52.587467 102.824387,51.868877 101.530334,51.222389 
	C74.636612,37.786655 47.725822,24.384987 20.851355,10.910872 
	C14.506226,7.729601 8.280600,4.309978 2.000000,1.000000 
	C13.687561,1.000000 25.375122,1.000000 37.637802,1.337240 
	C70.006645,17.573940 101.800377,33.473404 134.000000,49.575844 
	C134.000000,32.845913 134.000000,16.922956 134.000000,1.000000 
	C137.361282,1.000000 140.722580,1.000000 144.541931,1.000000 
z"/>
<path fill="#FBFAFB" opacity="1.000000" stroke="none" 
	d="
M177.458069,161.000000 
	C177.000000,139.860764 177.000000,118.721527 177.000000,96.990723 
	C224.871033,96.990723 272.466858,96.990723 320.531372,96.995361 
	C321.000000,100.361290 321.000000,103.722572 320.540833,107.440872 
	C297.588501,107.797882 275.095306,107.797882 252.602112,107.797882 
	C252.521088,108.128403 252.440063,108.458931 252.359024,108.789452 
	C275.239349,120.192970 298.119690,131.596481 321.000000,143.000000 
	C321.000000,144.714355 321.000000,146.428711 320.669098,148.455734 
	C295.546906,136.360718 270.565521,124.312943 246.058319,111.367401 
	C236.319611,106.223068 226.650650,108.468788 216.799988,108.278572 
	C218.120987,109.487495 219.533936,110.252556 220.970169,110.971054 
	C245.623810,123.304489 270.297241,135.598557 294.926880,147.979675 
	C303.340271,152.209000 311.645416,156.653702 320.000000,161.000000 
	C308.312439,161.000000 296.624878,161.000000 284.383209,160.655090 
	C252.020065,144.398422 220.211014,128.486694 188.000000,112.373878 
	C188.000000,129.139175 188.000000,145.069580 188.000000,161.000000 
	C184.638718,161.000000 181.277420,161.000000 177.458069,161.000000 
z"/>
<path fill="#FAFAFB" opacity="1.000000" stroke="none" 
	d="
M321.000000,64.541931 
	C273.195251,65.000000 225.390488,65.000000 176.990158,65.000000 
	C176.990158,43.800259 176.990158,22.868763 176.995087,1.468635 
	C180.361282,1.000000 183.722580,1.000000 187.441803,1.459326 
	C187.799744,17.596264 187.799744,33.273876 187.799744,49.592419 
	C190.320969,48.398445 191.960190,47.658863 193.567505,46.855434 
	C214.365372,36.459351 235.183868,26.104017 255.941864,15.628860 
	C265.357574,10.877404 274.651062,5.883775 284.000000,1.000001 
	C287.692902,1.000000 291.385834,1.000000 295.427490,1.334218 
	C261.432068,18.867926 227.087936,36.067413 192.743805,53.266903 
	C197.072479,54.247437 201.181442,54.000786 205.249359,54.304352 
	C211.597168,54.778049 217.165924,53.104294 222.832199,50.203648 
	C246.771881,37.948601 270.916382,26.094225 294.947449,14.016706 
	C303.355255,9.791121 311.652344,5.345260 320.000000,0.999996 
	C320.333344,2.944576 320.874969,4.880589 320.955353,6.835567 
	C321.108978,10.571536 321.000000,14.318300 320.664093,18.632397 
	C297.653992,30.574972 274.979797,41.945732 252.305588,53.316490 
	C252.424759,53.544327 252.543915,53.772163 252.663086,54.000000 
	C275.442047,54.000000 298.221039,54.000000 321.000000,54.000000 
	C321.000000,57.361286 321.000000,60.722576 321.000000,64.541931 
z"/>
<path fill="#FAFAFB" opacity="1.000000" stroke="none" 
	d="
M1.000000,97.458069 
	C48.804726,97.000000 96.609451,97.000000 145.009750,97.000000 
	C145.009750,118.199768 145.009750,139.131256 145.004883,160.531372 
	C141.638718,161.000000 138.277420,161.000000 134.558441,160.540726 
	C134.200745,144.413193 134.200745,128.744919 134.200745,112.440109 
	C131.665939,113.644508 130.028564,114.387550 128.421585,115.191322 
	C106.600220,126.105576 84.762840,136.988098 62.975121,147.969162 
	C54.590679,152.194916 46.321629,156.649612 38.000000,161.000000 
	C34.307091,161.000000 30.614182,161.000000 26.582714,160.670074 
	C60.609516,143.145691 94.974884,125.951202 129.340240,108.756721 
	C125.030762,107.753372 120.930557,107.995445 116.869972,107.697548 
	C110.522575,107.231888 104.948021,108.883568 99.270096,111.785477 
	C73.972702,124.714645 48.475540,137.252441 23.082785,149.995850 
	C15.998569,153.551071 9.024562,157.325912 1.999999,161.000000 
	C1.666666,159.055420 1.125018,157.119415 1.044623,155.164444 
	C0.890991,151.428482 1.000000,147.681702 1.340176,143.382111 
	C24.373983,131.452484 47.067616,120.080147 69.761246,108.707817 
	C69.636414,108.471878 69.511574,108.235939 69.386742,108.000000 
	C46.591160,108.000000 23.795580,108.000000 1.000000,108.000000 
	C1.000000,104.638710 1.000000,101.277428 1.000000,97.458069 
z"/>
<path fill="#022269" opacity="1.000000" stroke="none" 
	d="
M188.468658,161.000000 
	C188.000000,145.069580 188.000000,129.139175 188.000000,112.373878 
	C220.211014,128.486694 252.020065,144.398422 283.914551,160.655090 
	C252.312439,161.000000 220.624878,161.000000 188.468658,161.000000 
z"/>
<path fill="#022269" opacity="1.000000" stroke="none" 
	d="
M133.531342,1.000000 
	C134.000000,16.922956 134.000000,32.845913 134.000000,49.575844 
	C101.800377,33.473404 70.006645,17.573940 38.106461,1.337240 
	C69.687561,1.000000 101.375122,1.000000 133.531342,1.000000 
z"/>
<path fill="#022269" opacity="1.000000" stroke="none" 
	d="
M283.531342,1.000001 
	C274.651062,5.883775 265.357574,10.877404 255.941864,15.628860 
	C235.183868,26.104017 214.365372,36.459351 193.567505,46.855434 
	C191.960190,47.658863 190.320969,48.398445 187.799744,49.592419 
	C187.799744,33.273876 187.799744,17.596264 187.899872,1.459326 
	C219.687561,1.000000 251.375122,1.000000 283.531342,1.000001 
z"/>
<path fill="#022269" opacity="1.000000" stroke="none" 
	d="
M38.468658,161.000000 
	C46.321629,156.649612 54.590679,152.194916 62.975121,147.969162 
	C84.762840,136.988098 106.600220,126.105576 128.421585,115.191322 
	C130.028564,114.387550 131.665939,113.644508 134.200745,112.440109 
	C134.200745,128.744919 134.200745,144.413193 134.100372,160.540726 
	C102.312439,161.000000 70.624878,161.000000 38.468658,161.000000 
z"/>
<path fill="#C91633" opacity="1.000000" stroke="none" 
	d="
M319.531372,0.999998 
	C311.652344,5.345260 303.355255,9.791121 294.947449,14.016706 
	C270.916382,26.094225 246.771881,37.948601 222.832199,50.203648 
	C217.165924,53.104294 211.597168,54.778049 205.249359,54.304352 
	C201.181442,54.000786 197.072479,54.247437 192.743805,53.266903 
	C227.087936,36.067413 261.432068,18.867926 295.888123,1.334218 
	C303.687592,1.000000 311.375153,1.000000 319.531372,0.999998 
z"/>
<path fill="#C91633" opacity="1.000000" stroke="none" 
	d="
M2.468635,161.000000 
	C9.024562,157.325912 15.998569,153.551071 23.082785,149.995850 
	C48.475540,137.252441 73.972702,124.714645 99.270096,111.785477 
	C104.948021,108.883568 110.522575,107.231888 116.869972,107.697548 
	C120.930557,107.995445 125.030762,107.753372 129.340240,108.756721 
	C94.974884,125.951202 60.609516,143.145691 26.122078,160.670074 
	C18.312424,161.000000 10.624847,161.000000 2.468635,161.000000 
z"/>
<path fill="#02226A" opacity="1.000000" stroke="none" 
	d="
M321.000000,53.531342 
	C298.221039,54.000000 275.442047,54.000000 252.663086,54.000000 
	C252.543915,53.772163 252.424759,53.544327 252.305588,53.316490 
	C274.979797,41.945732 297.653992,30.574972 320.664093,19.102106 
	C321.000000,30.354227 321.000000,41.708454 321.000000,53.531342 
z"/>
<path fill="#02226A" opacity="1.000000" stroke="none" 
	d="
M321.000000,142.531342 
	C298.119690,131.596481 275.239349,120.192970 252.359024,108.789452 
	C252.440063,108.458931 252.521088,108.128403 252.602112,107.797882 
	C275.095306,107.797882 297.588501,107.797882 320.540833,107.898941 
	C321.000000,119.354225 321.000000,130.708450 321.000000,142.531342 
z"/>
<path fill="#02226A" opacity="1.000000" stroke="none" 
	d="
M1.000000,108.468658 
	C23.795580,108.000000 46.591160,108.000000 69.386742,108.000000 
	C69.511574,108.235939 69.636414,108.471878 69.761246,108.707817 
	C47.067616,120.080147 24.373983,131.452484 1.340176,142.912415 
	C1.000000,131.645767 1.000000,120.291542 1.000000,108.468658 
z"/>
<path fill="#02226A" opacity="1.000000" stroke="none" 
	d="
M1.000000,19.468658 
	C23.908937,30.393549 46.817875,41.787098 69.726807,53.180649 
	C69.637390,53.520992 69.547974,53.861340 69.458557,54.201683 
	C46.945164,54.201683 24.431772,54.201683 1.459191,54.100842 
	C1.000000,42.645771 1.000000,31.291544 1.000000,19.468658 
z"/>
<path fill="#C91633" opacity="1.000000" stroke="none" 
	d="
M320.500000,161.000000 
	C311.645416,156.653702 303.340271,152.209000 294.926880,147.979675 
	C270.297241,135.598557 245.623810,123.304489 220.970169,110.971054 
	C219.533936,110.252556 218.120987,109.487495 216.799988,108.278572 
	C226.650650,108.468788 236.319611,106.223068 246.058319,111.367401 
	C270.565521,124.312943 295.546906,136.360718 320.669098,148.884201 
	C321.000000,153.000000 321.000000,157.000000 320.500000,161.000000 
z"/>
<path fill="#C91633" opacity="1.000000" stroke="none" 
	d="
M1.500000,1.000000 
	C8.280600,4.309978 14.506226,7.729601 20.851355,10.910872 
	C47.725822,24.384987 74.636612,37.786655 101.530334,51.222389 
	C102.824387,51.868877 104.082420,52.587467 105.259140,53.746216 
	C95.578972,53.490917 86.032890,55.861351 76.460976,50.842598 
	C51.746807,37.884441 26.628477,25.697115 1.335786,13.100958 
	C1.000000,9.000000 1.000000,5.000000 1.500000,1.000000 
z"/>
</svg>